PathFileType	4	(X/Y/Z)	markers_results_mono.trc
DataRate	CameraRate	NumFrames	NumMarkers	Units	OrigDataRate	OrigDataStartFrame	OrigNumFrames
12.500000	12.500000	12	22	m	12.500000	1	3015
Frame#	Time	Nose			Neck			LShoulder			RShoulder			LElbow			RElbow			LWrist			RWrist			LHip			RHip			LKnee			RKnee			LAnkle			RAnkle			LEye			REye			LThumb			LIndex			LPinky			RThumb			RIndex			RPinky
		X1	Y1	Z1	X2	Y2	Z2	X3	Y3	Z3	X4	Y4	Z4	X5	Y5	Z5	X6	Y6	Z6	X7	Y7	Z7	X8	Y8	Z8	X9	Y9	Z9	X10	Y10	Z10	X11	Y11	Z11	X12	Y12	Z12	X13	Y13	Z13	X14	Y14	Z14	X15	Y15	Z15	X16	Y16	Z16	X17	Y17	Z17	X18	Y18	Z18	X19	Y19	Z19	X20	Y20	Z20	X21	Y21	Z21	X22	Y22	Z22

1	0.000000	0.241690	-1.135676	-0.103482	0.170864	-1.000686	-0.060076	0.198629	-1.009206	-0.300032	0.143099	-0.992165	0.179880	0.045502	-0.679098	-0.412152	0.114640	-0.607817	0.356113	0.264353	-0.560496	-0.374890	0.281663	-0.525767	0.108986	0.002805	-0.334181	-0.148811	-0.002805	-0.358240	0.148811	0.004453	0.050355	-0.154247	-0.007647	-0.112638	0.188016	-0.083461	0.360951	-0.138947	-0.285837	0.053036	0.239981	0.241690	-1.209510	-0.160536	0.241690	-1.212866	-0.043072	0.264353	-0.543966	-0.242651	0.264353	-0.461317	-0.230254	0.264353	-0.407595	-0.259181	0.281663	-0.591496	-0.040728	0.281663	-0.540374	-0.088199	0.281663	-0.456387	-0.088199
2	0.080000	0.235194	-1.136387	-0.124283	0.162274	-1.001403	-0.076130	0.190877	-1.007619	-0.319523	0.133672	-0.995188	0.167262	0.047875	-0.671362	-0.431748	0.112374	-0.609171	0.351365	0.260642	-0.553975	-0.390519	0.277504	-0.524395	0.111935	0.001141	-0.327664	-0.150189	0.001766	-0.361745	0.147427	-0.022621	0.054677	-0.143356	-0.002633	-0.115990	0.201013	-0.093697	0.329816	-0.097664	-0.279700	0.012690	0.262910	0.235194	-1.213089	-0.184311	0.235194	-1.219759	-0.067589	0.260642	-0.549419	-0.240197	0.260642	-0.462870	-0.244753	0.260642	-0.389987	-0.299415	0.277504	-0.594915	-0.029105	0.277504	-0.534973	-0.089047	0.277504	-0.450349	-0.089047
3	0.160000	0.237717	-1.135718	-0.138987	0.155102	-1.004496	-0.087376	0.181094	-1.005788	-0.333934	0.129111	-1.003204	0.159181	0.057138	-0.669001	-0.445523	0.117633	-0.624567	0.348538	0.261463	-0.551205	-0.405156	0.275777	-0.526530	0.112185	0.001809	-0.328456	-0.151339	0.007647	-0.366442	0.142336	-0.037257	0.052069	-0.117220	0.009627	-0.122132	0.211878	-0.099092	0.273964	-0.050635	-0.258356	-0.043946	0.298142	0.237717	-1.214617	-0.201449	0.237717	-1.221192	-0.079813	0.261463	-0.529463	-0.257309	0.261463	-0.468585	-0.252960	0.261463	-0.390313	-0.300793	0.275777	-0.580619	-0.046703	0.275777	-0.540052	-0.083890	0.275777	-0.458918	-0.083890
4	0.240000	0.238634	-1.139325	-0.156891	0.146395	-1.014674	-0.099881	0.173263	-1.013961	-0.351582	0.119527	-1.015388	0.151819	0.064359	-0.668238	-0.466174	0.113898	-0.633065	0.349095	0.262068	-0.545573	-0.418907	0.273942	-0.528058	0.119341	0.000563	-0.329692	-0.150938	0.013393	-0.373298	0.136317	-0.051246	0.041938	-0.099619	0.036970	-0.117056	0.223275	-0.103947	0.218360	-0.022771	-0.212539	-0.070104	0.325179	0.238634	-1.218971	-0.223794	0.238634	-1.231714	-0.099546	0.262068	-0.528540	-0.269866	0.262068	-0.443373	-0.248574	0.262068	-0.366723	-0.295416	0.273942	-0.590016	-0.049322	0.273942	-0.534942	-0.100954	0.273942	-0.445447	-0.107838
5	0.320000	0.248730	-1.136908	-0.170033	0.144574	-1.022858	-0.108669	0.168055	-1.018644	-0.365382	0.121093	-1.027073	0.148044	0.080549	-0.669129	-0.480700	0.119711	-0.647839	0.351347	0.268192	-0.539348	-0.432190	0.272853	-0.521906	0.121034	0.003267	-0.334638	-0.151089	0.018532	-0.376799	0.129782	-0.062011	0.017423	-0.079595	0.060178	-0.113506	0.227109	-0.105674	0.168694	0.000225	-0.166954	-0.075571	0.351845	0.248730	-1.221407	-0.238885	0.248730	-1.230796	-0.113700	0.268192	-0.512465	-0.304497	0.268192	-0.468781	-0.297776	0.268192	-0.394853	-0.328020	0.272853	-0.581873	-0.048873	0.272853	-0.501917	-0.098846	0.272853	-0.425292	-0.092183
6	0.400000	0.256750	-1.133586	-0.189337	0.141687	-1.032325	-0.122448	0.164458	-1.028812	-0.386337	0.118916	-1.035838	0.141440	0.091762	-0.666902	-0.504759	0.119292	-0.647470	0.352868	0.271502	-0.527349	-0.447219	0.273188	-0.511641	0.127605	0.003746	-0.335374	-0.150359	0.022138	-0.378574	0.124698	-0.075018	-0.000825	-0.076666	0.079203	-0.096125	0.232311	-0.110513	0.133536	0.007284	-0.120351	-0.038544	0.364184	0.256750	-1.216904	-0.260311	0.256750	-1.226162	-0.130706	0.271502	-0.462466	-0.304476	0.271502	-0.433268	-0.285011	0.271502	-0.374873	-0.336917	0.273188	-0.540642	-0.062510	0.273188	-0.472974	-0.091510	0.273188	-0.405306	-0.085066
7	0.480000	0.273673	-1.123407	-0.198451	0.143920	-1.037766	-0.129479	0.161461	-1.032091	-0.400805	0.126379	-1.043442	0.141847	0.109282	-0.664549	-0.519535	0.130744	-0.651840	0.357094	0.279706	-0.513842	-0.461638	0.276413	-0.494799	0.129111	0.007082	-0.335889	-0.151297	0.025991	-0.373717	0.119990	-0.082623	-0.019781	-0.069597	0.096587	-0.077871	0.233237	-0.111582	0.102368	0.014548	-0.049481	0.034297	0.375767	0.273673	-1.208574	-0.274155	0.273673	-1.221191	-0.138519	0.279706	-0.435078	-0.336928	0.279706	-0.405541	-0.313955	0.279706	-0.356314	-0.359901	0.276413	-0.508781	-0.087597	0.276413	-0.417903	-0.136531	0.276413	-0.347997	-0.133036
8	0.560000	0.287544	-1.113075	-0.208122	0.145777	-1.045005	-0.136739	0.159780	-1.042568	-0.416294	0.131774	-1.047443	0.142815	0.115322	-0.663017	-0.534511	0.137455	-0.637943	0.361855	0.282000	-0.499425	-0.472292	0.282067	-0.475894	0.137120	0.005268	-0.334434	-0.150333	0.029854	-0.366292	0.116793	-0.095658	-0.031099	-0.077451	0.114248	-0.047568	0.238295	-0.119874	0.081729	0.008919	0.035972	0.129273	0.375093	0.287544	-1.198576	-0.290334	0.287544	-1.215018	-0.148929	0.282000	-0.413442	-0.316861	0.282000	-0.367144	-0.300326	0.282000	-0.347301	-0.379695	0.282067	-0.489699	-0.080307	0.282067	-0.382711	-0.135526	0.282067	-0.330943	-0.107916
9	0.640000	0.307597	-1.103288	-0.204619	0.152838	-1.055588	-0.134303	0.159640	-1.054347	-0.424778	0.146036	-1.056829	0.156172	0.127694	-0.668339	-0.541217	0.156511	-0.636078	0.377092	0.290560	-0.490842	-0.483124	0.289554	-0.457403	0.144099	0.005222	-0.337363	-0.153326	0.034449	-0.358549	0.115185	-0.105176	-0.048638	-0.081792	0.125827	-0.032615	0.240387	-0.125108	0.056046	0.002909	0.082971	0.167830	0.374538	0.307597	-1.193431	-0.291423	0.307597	-1.213462	-0.137847	0.290560	-0.398472	-0.331373	0.290560	-0.352287	-0.318177	0.290560	-0.335792	-0.394052	0.289554	-0.447017	-0.094778	0.289554	-0.363929	-0.146708	0.289554	-0.311999	-0.087854
10	0.720000	0.320291	-1.099676	-0.202584	0.159199	-1.066790	-0.132604	0.161903	-1.072785	-0.432831	0.156495	-1.060794	0.167623	0.129203	-0.675611	-0.550882	0.167833	-0.621041	0.390058	0.291398	-0.487567	-0.489007	0.295905	-0.444479	0.157055	0.001090	-0.343133	-0.153266	0.037356	-0.355755	0.114650	-0.122662	-0.065025	-0.097050	0.131824	-0.018197	0.242936	-0.138605	0.033423	-0.012793	0.094061	0.199944	0.357275	0.320291	-1.196938	-0.286431	0.320291	-1.207000	-0.132153	0.291398	-0.385634	-0.306231	0.291398	-0.325881	-0.313260	0.291398	-0.311821	-0.411679	0.295905	-0.437835	-0.068832	0.295905	-0.351466	-0.121982	0.295905	-0.318247	-0.075476
11	0.800000	0.340121	-1.099535	-0.190743	0.170774	-1.080259	-0.121893	0.167059	-1.090846	-0.434392	0.174489	-1.069672	0.190606	0.138215	-0.687065	-0.555173	0.189584	-0.618525	0.414042	0.298030	-0.488174	-0.495263	0.304869	-0.431807	0.168810	0.000144	-0.353346	-0.156754	0.041205	-0.356404	0.117255	-0.137620	-0.083583	-0.111455	0.140353	-0.016654	0.244798	-0.148599	0.012706	-0.031383	0.102019	0.207820	0.339320	0.340121	-1.205279	-0.279431	0.340121	-1.215512	-0.112288	0.298030	-0.377048	-0.323523	0.298030	-0.333272	-0.363932	0.298030	-0.323169	-0.448118	0.304869	-0.428328	-0.085144	0.304869	-0.330921	-0.133848	0.304869	-0.303091	-0.078187
12	0.880000	0.354703	-1.100967	-0.183338	0.180634	-1.096487	-0.116071	0.173183	-1.115152	-0.437820	0.188086	-1.077822	0.205679	0.137743	-0.700394	-0.559722	0.201737	-0.609202	0.432396	0.297452	-0.494974	-0.495242	0.312259	-0.427184	0.184454	-0.002360	-0.364444	-0.154999	0.043606	-0.360783	0.119221	-0.156223	-0.100542	-0.130171	0.150292	-0.017138	0.250121	-0.166467	-0.008649	-0.047182	0.109538	0.203189	0.323807	0.354703	-1.210460	-0.275723	0.354703	-1.220725	-0.104640	0.297452	-0.382355	-0.346186	0.297452	-0.339295	-0.356124	0.297452	-0.342607	-0.445557	0.312259	-0.399551	-0.088413	0.312259	-0.313201	-0.133315	0.312259	-0.289023	-0.046965
